<svg xmlns="http://www.w3.org/2000/svg" width="200" height="200" viewBox="0 0 200 200" version="1.1">
	<path d="M 95.745 13.656 C 94.426 15.770, 88.515 25.825, 82.610 36 C 76.706 46.175, 69.807 57.825, 67.280 61.889 C 61.890 70.557, 62.115 71.638, 69.852 74.247 C 87.111 80.067, 133 77.173, 133 70.266 C 133 69.445, 129.696 63.313, 125.658 56.637 C 121.619 49.962, 113.904 36.850, 108.512 27.500 C 103.120 18.150, 98.581 10.345, 98.426 10.156 C 98.271 9.966, 97.065 11.541, 95.745 13.656 M 29.817 76.250 C 30.906 78.037, 34.543 83.979, 37.898 89.453 C 41.254 94.927, 44 99.820, 44 100.326 C 44 100.832, 41.952 104.620, 39.450 108.742 C 36.947 112.864, 35.034 116.928, 35.200 117.772 C 35.758 120.623, 44.268 123.819, 58.608 126.563 C 60.148 126.858, 65.938 135.585, 80.108 158.970 C 90.774 176.572, 99.725 190.976, 100 190.979 C 100.275 190.982, 109.302 176.496, 120.060 158.788 L 139.619 126.592 148.748 123.969 C 158.307 121.224, 161 119.749, 161 117.258 C 161 116.435, 159.383 113.100, 157.406 109.846 C 155.430 106.592, 154.035 103.383, 154.308 102.715 C 154.580 102.047, 158.641 95.206, 163.332 87.514 C 168.024 79.822, 171.738 73.404, 171.586 73.252 C 171.433 73.100, 169.327 73.851, 166.905 74.921 C 146.063 84.125, 76.448 85.881, 43.419 78.037 C 38.761 76.931, 33.634 75.345, 32.025 74.513 C 27.868 72.363, 27.585 72.586, 29.817 76.250" stroke="none" fill="#4194be" fill-rule="evenodd"/>
</svg>